<svg version="1.1" id="Layer_1" xmlns="http://www.w3.org/2000/svg" xmlns:xlink="http://www.w3.org/1999/xlink" x="0px" y="0px"
	 width="100%" viewBox="0 0 500 500" enable-background="new 0 0 500 500" xml:space="preserve">
<path fill="#FFFFFF" opacity="1.000000" stroke="none" 
	d="
M279.000000,501.000000 
	C186.000015,501.000000 93.500046,501.000000 1.000050,501.000000 
	C1.000033,334.333405 1.000033,167.666794 1.000017,1.000139 
	C167.666565,1.000093 334.333130,1.000093 500.999756,1.000046 
	C500.999847,167.666519 500.999847,334.333038 500.999939,500.999786 
	C427.166656,501.000000 353.333344,501.000000 279.000000,501.000000 
M371.500000,283.006104 
	C379.251709,283.006104 387.003387,283.006104 394.886169,283.006104 
	C394.886169,268.742096 395.090942,255.250046 394.814758,241.767853 
	C394.627960,232.649612 390.582367,227.074203 382.847748,225.486465 
	C370.184845,222.887085 357.855042,225.633209 345.325928,228.263885 
	C345.576263,231.975967 345.784760,235.067673 345.963623,237.719696 
	C354.457794,237.719696 362.431458,237.648544 370.403107,237.744019 
	C375.974152,237.810730 378.827057,239.804260 379.047485,244.630493 
	C379.409912,252.566498 379.145721,260.531128 379.145721,268.668823 
	C360.048920,268.668823 341.165497,268.668823 321.909027,268.668823 
	C321.909027,254.245499 321.909027,240.143066 321.909027,225.983582 
	C316.634735,225.983582 311.743622,225.983582 306.381409,225.983582 
	C306.381409,240.440811 306.381409,254.521423 306.381409,268.735779 
	C280.640656,268.735779 255.380768,268.735779 229.633560,268.735779 
	C229.633560,246.737869 229.633560,224.991196 229.633560,202.977753 
	C224.233231,202.977753 219.321350,202.977753 214.358978,202.977753 
	C214.358978,229.702103 214.358978,256.131622 214.358978,283.006104 
	C266.585266,283.006104 318.542633,283.006104 371.500000,283.006104 
M478.287506,210.695816 
	C477.961029,205.090302 474.381134,201.879028 469.624603,200.211334 
	C466.292206,199.042969 465.164978,197.422119 464.917816,193.934280 
	C464.394287,186.545395 458.817230,180.740387 451.469757,179.062134 
	C440.925385,176.653671 434.401001,178.613464 430.131073,186.037857 
	C428.768829,188.406494 427.429565,189.132507 424.777435,189.246201 
	C418.664490,189.508255 414.554382,193.039078 413.197968,198.463470 
	C411.721497,204.367783 413.617615,208.208542 419.208130,211.916031 
	C420.664520,212.881866 422.312225,215.028778 422.227325,216.540833 
	C422.054840,219.611404 422.517487,223.620010 418.245697,224.777527 
	C410.927185,226.760635 406.746124,232.031357 405.709412,238.896774 
	C404.454376,247.207764 403.637360,255.846878 404.491547,264.152618 
	C405.753082,276.418671 413.923920,282.740112 426.350342,282.986908 
	C430.994202,283.079193 435.641449,283.001862 440.239258,283.001862 
	C441.413574,294.348724 438.157837,297.859955 427.334351,297.119659 
	C422.439270,296.784851 417.565979,296.131683 412.296570,295.582703 
	C412.296570,299.316956 412.472626,302.471100 412.246216,305.596069 
	C412.027039,308.621124 413.277588,309.761688 416.175629,309.971619 
	C420.489075,310.284119 424.774109,310.974731 429.085571,311.330994 
	C442.532684,312.442017 450.586029,306.893372 454.289490,293.816010 
	C455.189606,290.637665 455.885132,287.293884 455.964966,284.008911 
	C456.349426,268.193146 456.349762,252.367172 456.827911,236.555145 
	C456.934326,233.036911 458.191528,229.477814 459.408844,226.114883 
	C459.774719,225.104111 461.857483,224.009018 463.051300,224.114288 
	C473.536133,225.038788 477.248383,222.038971 478.287506,210.695816 
M69.802849,296.587250 
	C75.452728,305.360870 83.958389,310.166473 93.896027,310.749664 
	C108.490425,311.606079 123.190277,311.502075 137.805786,310.880554 
	C148.298294,310.434357 155.548981,303.357849 157.992767,293.069855 
	C158.748917,289.886536 159.077957,286.601776 159.683456,282.864075 
	C173.043564,282.864075 186.271347,282.864075 199.576965,282.864075 
	C199.576965,263.578033 199.576965,244.835449 199.576965,225.903137 
	C194.404373,225.903137 189.491074,225.903137 184.168671,225.903137 
	C184.168671,240.299667 184.168671,254.393677 184.168671,268.990234 
	C171.314972,268.990234 158.864548,269.137970 146.420715,268.916077 
	C141.579498,268.829773 136.753159,267.909882 131.133835,267.281860 
	C129.646255,269.986938 127.600281,273.707367 124.857910,278.694183 
	C131.425797,280.632507 137.297119,282.365234 143.214432,284.111542 
	C143.073654,294.226868 140.130249,297.255585 129.858322,297.326141 
	C120.030884,297.393677 110.201164,297.443176 100.375008,297.310516 
	C86.941208,297.129181 80.628204,289.724396 82.316010,276.392700 
	C82.851128,272.165863 83.358330,267.935486 83.910843,263.442139 
	C78.927032,262.680267 74.423798,261.991882 69.718094,261.272522 
	C69.156036,264.027344 68.549263,266.270142 68.258812,268.553162 
	C67.089424,277.745117 64.668594,287.006500 69.802849,296.587250 
M319.293762,307.036194 
	C319.869110,306.586548 320.930756,306.150848 320.944153,305.685028 
	C321.071045,301.268890 321.019745,296.847687 321.019745,292.452209 
	C316.033447,292.452209 311.652557,292.452209 307.258667,292.452209 
	C307.258667,297.410706 307.258667,302.003143 307.258667,307.054504 
	C311.104309,307.054504 314.720032,307.054504 319.293762,307.036194 
M374.354065,307.055542 
	C375.566193,306.391571 377.765472,305.807373 377.826660,305.050323 
	C378.167603,300.832642 377.990417,296.573120 377.990417,292.325470 
	C372.992523,292.325470 368.728790,292.325470 364.227356,292.325470 
	C364.227356,297.269104 364.227356,301.975677 364.227356,307.055878 
	C367.476440,307.055878 370.437286,307.055878 374.354065,307.055542 
M99.280449,331.198029 
	C100.078781,332.142151 100.797714,333.801453 101.689857,333.900482 
	C104.742943,334.239410 107.856857,334.030426 110.996964,334.030426 
	C110.996964,329.010162 110.996964,324.583557 110.996964,320.021545 
	C107.042755,320.021545 103.326111,320.021545 99.277504,320.021545 
	C99.277504,323.658661 99.277504,326.965302 99.280449,331.198029 
M195.135132,214.171204 
	C198.931335,214.520020 202.727524,214.868835 206.646423,215.228928 
	C206.646423,209.901352 206.646423,205.498596 206.646423,200.949585 
	C202.663727,200.949585 198.951721,200.949585 195.013275,200.949585 
	C195.013275,205.277176 195.013275,209.254120 195.135132,214.171204 
M120.591736,334.037506 
	C123.178261,334.037506 125.764793,334.037506 128.559753,334.037506 
	C128.559753,329.037842 128.559753,324.647705 128.559753,319.986938 
	C124.628365,319.986938 120.922356,319.986938 116.904320,319.986938 
	C116.904320,324.068695 116.739510,327.869446 117.028793,331.635284 
	C117.094978,332.496857 118.726410,333.238220 120.591736,334.037506 
M180.617340,214.978012 
	C183.385300,214.978012 186.153275,214.978012 188.993576,214.978012 
	C188.993576,209.991516 188.993576,205.599838 188.993576,201.065155 
	C185.149948,201.065155 181.615250,201.065155 177.693268,201.065155 
	C177.693268,205.187561 177.586548,208.976883 177.782059,212.750565 
	C177.821823,213.518143 178.999725,214.226776 180.617340,214.978012 
z"/>
<path fill="#F97519" opacity="1.000000" stroke="none" 
	d="
M371.000000,283.006104 
	C318.542633,283.006104 266.585266,283.006104 214.358978,283.006104 
	C214.358978,256.131622 214.358978,229.702103 214.358978,202.977753 
	C219.321350,202.977753 224.233231,202.977753 229.633560,202.977753 
	C229.633560,224.991196 229.633560,246.737869 229.633560,268.735779 
	C255.380768,268.735779 280.640656,268.735779 306.381409,268.735779 
	C306.381409,254.521423 306.381409,240.440811 306.381409,225.983582 
	C311.743622,225.983582 316.634735,225.983582 321.909027,225.983582 
	C321.909027,240.143066 321.909027,254.245499 321.909027,268.668823 
	C341.165497,268.668823 360.048920,268.668823 379.145721,268.668823 
	C379.145721,260.531128 379.409912,252.566498 379.047485,244.630493 
	C378.827057,239.804260 375.974152,237.810730 370.403107,237.744019 
	C362.431458,237.648544 354.457794,237.719696 345.963623,237.719696 
	C345.784760,235.067673 345.576263,231.975967 345.325928,228.263885 
	C357.855042,225.633209 370.184845,222.887085 382.847748,225.486465 
	C390.582367,227.074203 394.627960,232.649612 394.814758,241.767853 
	C395.090942,255.250046 394.886169,268.742096 394.886169,283.006104 
	C387.003387,283.006104 379.251709,283.006104 371.000000,283.006104 
z"/>
<path fill="#F9771D" opacity="1.000000" stroke="none" 
	d="
M478.260773,211.073242 
	C477.248383,222.038971 473.536133,225.038788 463.051300,224.114288 
	C461.857483,224.009018 459.774719,225.104111 459.408844,226.114883 
	C458.191528,229.477814 456.934326,233.036911 456.827911,236.555145 
	C456.349762,252.367172 456.349426,268.193146 455.964966,284.008911 
	C455.885132,287.293884 455.189606,290.637665 454.289490,293.816010 
	C450.586029,306.893372 442.532684,312.442017 429.085571,311.330994 
	C424.774109,310.974731 420.489075,310.284119 416.175629,309.971619 
	C413.277588,309.761688 412.027039,308.621124 412.246216,305.596069 
	C412.472626,302.471100 412.296570,299.316956 412.296570,295.582703 
	C417.565979,296.131683 422.439270,296.784851 427.334351,297.119659 
	C438.157837,297.859955 441.413574,294.348724 440.239258,283.001862 
	C435.641449,283.001862 430.994202,283.079193 426.350342,282.986908 
	C413.923920,282.740112 405.753082,276.418671 404.491547,264.152618 
	C403.637360,255.846878 404.454376,247.207764 405.709412,238.896774 
	C406.746124,232.031357 410.927185,226.760635 418.245697,224.777527 
	C422.517487,223.620010 422.054840,219.611404 422.227325,216.540833 
	C422.312225,215.028778 420.664520,212.881866 419.208130,211.916031 
	C413.617615,208.208542 411.721497,204.367783 413.197968,198.463470 
	C414.554382,193.039078 418.664490,189.508255 424.777435,189.246201 
	C427.429565,189.132507 428.768829,188.406494 430.131073,186.037857 
	C434.401001,178.613464 440.925385,176.653671 451.469757,179.062134 
	C458.817230,180.740387 464.394287,186.545395 464.917816,193.934280 
	C465.164978,197.422119 466.292206,199.042969 469.624603,200.211334 
	C474.381134,201.879028 477.961029,205.090302 478.260773,211.073242 
M455.998566,185.391922 
	C450.377838,181.569901 444.202789,180.522064 438.001221,183.168625 
	C431.172699,186.082733 429.188324,192.429733 428.214752,199.245010 
	C427.901642,197.157394 427.588562,195.069763 427.286011,193.052643 
	C420.809418,192.469910 417.550079,194.382263 416.328186,199.289673 
	C415.181213,203.896210 417.151978,207.507523 422.757507,209.501083 
	C425.590240,210.508545 426.326294,211.992416 426.067078,214.605850 
	C425.842041,216.874390 425.697784,219.150940 425.545685,221.072052 
	C435.160645,222.649689 444.620392,224.281601 454.116302,225.665710 
	C455.398285,225.852585 456.861877,224.793671 458.241364,224.311615 
	C458.084930,223.882233 457.928497,223.452850 457.772064,223.023468 
	C456.652802,222.632156 455.533539,222.240845 454.441589,221.859100 
	C457.341858,219.932510 460.033752,218.144363 463.066864,216.129532 
	C462.925598,217.843643 462.816986,219.161438 462.711517,220.441544 
	C470.088776,221.764618 473.136871,220.246613 474.314240,214.387589 
	C474.712891,212.403671 474.846893,209.218597 473.707214,208.285248 
	C470.050476,205.290543 465.741608,203.092148 461.184448,200.277740 
	C461.648468,195.573761 461.829590,189.910278 455.998566,185.391922 
M441.119812,241.695099 
	C441.475708,239.130707 440.685791,237.937332 437.784515,237.586426 
	C427.933868,236.395035 422.076233,238.189758 420.688385,244.598083 
	C419.527039,249.960739 419.683838,255.747955 420.132111,261.276215 
	C420.491852,265.713043 423.933014,268.325317 428.325958,268.724701 
	C432.407501,269.095795 436.549347,268.803894 441.120209,268.803894 
	C441.120209,259.884552 441.120209,251.268295 441.119812,241.695099 
z"/>
<path fill="#F9761B" opacity="1.000000" stroke="none" 
	d="
M69.596992,296.273621 
	C64.668594,287.006500 67.089424,277.745117 68.258812,268.553162 
	C68.549263,266.270142 69.156036,264.027344 69.718094,261.272522 
	C74.423798,261.991882 78.927032,262.680267 83.910843,263.442139 
	C83.358330,267.935486 82.851128,272.165863 82.316010,276.392700 
	C80.628204,289.724396 86.941208,297.129181 100.375008,297.310516 
	C110.201164,297.443176 120.030884,297.393677 129.858322,297.326141 
	C140.130249,297.255585 143.073654,294.226868 143.214432,284.111542 
	C137.297119,282.365234 131.425797,280.632507 124.857910,278.694183 
	C127.600281,273.707367 129.646255,269.986938 131.133835,267.281860 
	C136.753159,267.909882 141.579498,268.829773 146.420715,268.916077 
	C158.864548,269.137970 171.314972,268.990234 184.168671,268.990234 
	C184.168671,254.393677 184.168671,240.299667 184.168671,225.903137 
	C189.491074,225.903137 194.404373,225.903137 199.576965,225.903137 
	C199.576965,244.835449 199.576965,263.578033 199.576965,282.864075 
	C186.271347,282.864075 173.043564,282.864075 159.683456,282.864075 
	C159.077957,286.601776 158.748917,289.886536 157.992767,293.069855 
	C155.548981,303.357849 148.298294,310.434357 137.805786,310.880554 
	C123.190277,311.502075 108.490425,311.606079 93.896027,310.749664 
	C83.958389,310.166473 75.452728,305.360870 69.596992,296.273621 
z"/>
<path fill="#F97519" opacity="1.000000" stroke="none" 
	d="
M318.814758,307.045349 
	C314.720032,307.054504 311.104309,307.054504 307.258667,307.054504 
	C307.258667,302.003143 307.258667,297.410706 307.258667,292.452209 
	C311.652557,292.452209 316.033447,292.452209 321.019745,292.452209 
	C321.019745,296.847687 321.071045,301.268890 320.944153,305.685028 
	C320.930756,306.150848 319.869110,306.586548 318.814758,307.045349 
z"/>
<path fill="#F97519" opacity="1.000000" stroke="none" 
	d="
M373.876099,307.055725 
	C370.437286,307.055878 367.476440,307.055878 364.227356,307.055878 
	C364.227356,301.975677 364.227356,297.269104 364.227356,292.325470 
	C368.728790,292.325470 372.992523,292.325470 377.990417,292.325470 
	C377.990417,296.573120 378.167603,300.832642 377.826660,305.050323 
	C377.765472,305.807373 375.566193,306.391571 373.876099,307.055725 
z"/>
<path fill="#F9781E" opacity="1.000000" stroke="none" 
	d="
M99.278976,330.734985 
	C99.277504,326.965302 99.277504,323.658661 99.277504,320.021545 
	C103.326111,320.021545 107.042755,320.021545 110.996964,320.021545 
	C110.996964,324.583557 110.996964,329.010162 110.996964,334.030426 
	C107.856857,334.030426 104.742943,334.239410 101.689857,333.900482 
	C100.797714,333.801453 100.078781,332.142151 99.278976,330.734985 
z"/>
<path fill="#F9751A" opacity="1.000000" stroke="none" 
	d="
M195.074203,213.701141 
	C195.013275,209.254120 195.013275,205.277176 195.013275,200.949585 
	C198.951721,200.949585 202.663727,200.949585 206.646423,200.949585 
	C206.646423,205.498596 206.646423,209.901352 206.646423,215.228928 
	C202.727524,214.868835 198.931335,214.520020 195.074203,213.701141 
z"/>
<path fill="#F9771D" opacity="1.000000" stroke="none" 
	d="
M120.114594,334.036194 
	C118.726410,333.238220 117.094978,332.496857 117.028793,331.635284 
	C116.739510,327.869446 116.904320,324.068695 116.904320,319.986938 
	C120.922356,319.986938 124.628365,319.986938 128.559753,319.986938 
	C128.559753,324.647705 128.559753,329.037842 128.559753,334.037506 
	C125.764793,334.037506 123.178261,334.037506 120.114594,334.036194 
z"/>
<path fill="#F97317" opacity="1.000000" stroke="none" 
	d="
M180.135162,214.970306 
	C178.999725,214.226776 177.821823,213.518143 177.782059,212.750565 
	C177.586548,208.976883 177.693268,205.187561 177.693268,201.065155 
	C181.615250,201.065155 185.149948,201.065155 188.993576,201.065155 
	C188.993576,205.599838 188.993576,209.991516 188.993576,214.978012 
	C186.153275,214.978012 183.385300,214.978012 180.135162,214.970306 
z"/>
<path fill="#FFFDFB" opacity="1.000000" stroke="none" 
	d="
M456.283691,185.638962 
	C461.829590,189.910278 461.648468,195.573761 461.184448,200.277740 
	C465.741608,203.092148 470.050476,205.290543 473.707214,208.285248 
	C474.846893,209.218597 474.712891,212.403671 474.314240,214.387589 
	C473.136871,220.246613 470.088776,221.764618 462.711517,220.441544 
	C462.816986,219.161438 462.925598,217.843643 463.066864,216.129532 
	C460.033752,218.144363 457.341858,219.932510 454.441589,221.859100 
	C455.533539,222.240845 456.652802,222.632156 457.772064,223.023468 
	C457.928497,223.452850 458.084930,223.882233 458.241364,224.311615 
	C456.861877,224.793671 455.398285,225.852585 454.116302,225.665710 
	C444.620392,224.281601 435.160645,222.649689 425.545685,221.072052 
	C425.697784,219.150940 425.842041,216.874390 426.067078,214.605850 
	C426.326294,211.992416 425.590240,210.508545 422.757507,209.501083 
	C417.151978,207.507523 415.181213,203.896210 416.328186,199.289673 
	C417.550079,194.382263 420.809418,192.469910 427.286011,193.052643 
	C427.588562,195.069763 427.901642,197.157394 428.214752,199.245010 
	C429.188324,192.429733 431.172699,186.082733 438.001221,183.168625 
	C444.202789,180.522064 450.377838,181.569901 456.283691,185.638962 
z"/>
<path fill="#FFFDFC" opacity="1.000000" stroke="none" 
	d="
M441.119995,242.173569 
	C441.120209,251.268295 441.120209,259.884552 441.120209,268.803894 
	C436.549347,268.803894 432.407501,269.095795 428.325958,268.724701 
	C423.933014,268.325317 420.491852,265.713043 420.132111,261.276215 
	C419.683838,255.747955 419.527039,249.960739 420.688385,244.598083 
	C422.076233,238.189758 427.933868,236.395035 437.784515,237.586426 
	C440.685791,237.937332 441.475708,239.130707 441.119995,242.173569 
z"/>
</svg>