<svg version="1.1" id="Layer_1" xmlns="http://www.w3.org/2000/svg" xmlns:xlink="http://www.w3.org/1999/xlink" x="0px" y="0px"
	 width="100%" viewBox="0 0 500 500" enable-background="new 0 0 500 500" xml:space="preserve">
<path fill="#FFFFFF" opacity="1.000000" stroke="none" 
	d="
M271.000000,501.000000 
	C180.666687,501.000000 90.833374,501.000000 1.000048,501.000000 
	C1.000032,334.333405 1.000032,167.666794 1.000016,1.000138 
	C167.666565,1.000092 334.333130,1.000092 500.999756,1.000046 
	C500.999847,167.666519 500.999847,334.333038 500.999939,500.999786 
	C424.500000,501.000000 348.000000,501.000000 271.000000,501.000000 
M300.952240,444.326935 
	C301.160461,444.380890 301.368683,444.434845 301.576904,444.488800 
	C301.378448,444.326141 301.180023,444.163513 300.889709,443.313507 
	C284.111481,417.211884 260.069641,400.093292 231.683121,389.083588 
	C192.167786,373.757599 150.919922,368.430695 108.683357,370.104218 
	C106.913597,370.174347 105.138634,370.113190 103.090935,370.113190 
	C103.616394,367.890015 104.025124,366.122345 104.452324,364.359131 
	C109.983841,341.528687 112.967308,318.553314 108.933098,295.080353 
	C108.285812,291.314117 106.875633,289.569122 102.915970,288.804230 
	C89.709595,286.253204 77.485176,281.031464 66.292519,273.573059 
	C49.674618,262.499420 38.443874,247.785828 39.203716,227.001190 
	C40.413155,193.918167 57.661819,170.103271 92.629944,164.192749 
	C102.113235,162.589813 111.729240,162.056488 121.227882,164.176544 
	C120.693039,198.435745 126.951340,224.847137 136.666702,230.301849 
	C135.121857,224.331940 132.987381,218.345032 132.078796,212.177521 
	C128.313614,186.619263 134.099106,162.799164 146.869858,140.720139 
	C163.844498,111.373108 188.882385,93.020378 222.737656,87.830521 
	C245.996750,84.264999 268.547272,88.265778 290.489716,95.942413 
	C339.472992,113.079391 365.235779,153.465332 360.181061,205.154724 
	C359.379608,213.350281 357.616669,221.451797 356.243256,229.936615 
	C359.424561,230.299042 362.532257,230.722763 365.653076,230.997330 
	C386.159851,232.801468 405.623413,238.180557 423.351410,248.775848 
	C439.426208,258.383087 451.290802,271.369110 453.961487,290.837097 
	C456.059509,306.131073 453.045654,320.701019 446.920380,334.636810 
	C440.404114,349.462128 429.611511,359.813751 413.632690,363.868744 
	C395.452515,368.482422 377.748779,364.897156 360.984619,360.775330 
	C365.751923,352.312134 371.071442,344.324036 374.896362,335.674957 
	C378.832947,326.773254 379.151764,313.551331 377.470642,308.194122 
	C360.546448,344.977783 331.594604,365.822662 290.740173,371.295715 
	C298.662231,372.967346 306.758820,374.770294 314.886597,374.923981 
	C322.980804,375.077026 331.106293,373.574799 339.141388,372.805725 
	C330.258179,402.356506 327.217682,423.121796 329.145569,442.125549 
	C331.195953,435.897278 332.673737,429.904022 335.104401,424.325989 
	C340.870148,411.094604 347.062958,398.048584 353.142609,384.955292 
	C354.424164,382.195251 356.115753,381.576263 359.490784,382.557251 
	C368.882538,385.287079 378.396088,388.320129 388.054474,389.268738 
	C412.716370,391.691040 436.354797,387.413422 453.738953,368.479156 
	C478.836121,341.144073 486.613220,308.287567 476.283600,272.623352 
	C468.673706,246.349121 448.356110,230.621368 424.369843,219.805328 
	C412.471680,214.440125 399.809326,210.769547 387.673431,206.397430 
	C387.132477,196.057495 387.194122,185.195419 385.887024,174.500610 
	C381.897644,141.858902 368.045593,114.075981 341.608215,94.055580 
	C306.360565,67.363373 266.028503,57.311153 222.252350,61.933037 
	C187.313339,65.621887 160.239349,82.972832 141.156204,112.304146 
	C135.314850,121.282486 131.066254,131.297104 126.006615,140.993622 
	C115.632011,140.993622 104.627556,140.220016 93.769768,141.153091 
	C70.480392,143.154556 50.439610,152.352371 35.161655,170.601990 
	C25.537548,182.098053 20.408361,195.610016 17.260845,210.114929 
	C12.241858,233.244263 16.008383,254.410492 30.588530,273.315582 
	C43.981060,290.680817 62.217911,301.048431 82.374298,308.388947 
	C85.569244,309.552490 86.273987,310.994141 86.301361,314.021027 
	C86.491783,335.075958 82.633041,355.417114 75.604752,375.178314 
	C72.504143,383.896149 68.960579,392.456421 65.374001,401.718628 
	C67.029999,401.448395 67.961182,401.309509 68.887459,401.143311 
	C80.504074,399.058685 92.042564,396.152100 103.751350,395.043976 
	C132.816986,392.293274 161.656250,394.966187 190.132797,401.121063 
	C226.581863,408.999115 261.624695,420.761932 293.862488,439.957794 
	C296.218628,441.360779 298.664032,442.613770 300.952240,444.326935 
z"/>
<path fill="#F97418" opacity="1.000000" stroke="none" 
	d="
M301.067963,443.936523 
	C298.664032,442.613770 296.218628,441.360779 293.862488,439.957794 
	C261.624695,420.761932 226.581863,408.999115 190.132797,401.121063 
	C161.656250,394.966187 132.816986,392.293274 103.751350,395.043976 
	C92.042564,396.152100 80.504074,399.058685 68.887459,401.143311 
	C67.961182,401.309509 67.029999,401.448395 65.374001,401.718628 
	C68.960579,392.456421 72.504143,383.896149 75.604752,375.178314 
	C82.633041,355.417114 86.491783,335.075958 86.301361,314.021027 
	C86.273987,310.994141 85.569244,309.552490 82.374298,308.388947 
	C62.217911,301.048431 43.981060,290.680817 30.588530,273.315582 
	C16.008383,254.410492 12.241858,233.244263 17.260845,210.114929 
	C20.408361,195.610016 25.537548,182.098053 35.161655,170.601990 
	C50.439610,152.352371 70.480392,143.154556 93.769768,141.153091 
	C104.627556,140.220016 115.632011,140.993622 126.006615,140.993622 
	C131.066254,131.297104 135.314850,121.282486 141.156204,112.304146 
	C160.239349,82.972832 187.313339,65.621887 222.252350,61.933037 
	C266.028503,57.311153 306.360565,67.363373 341.608215,94.055580 
	C368.045593,114.075981 381.897644,141.858902 385.887024,174.500610 
	C387.194122,185.195419 387.132477,196.057495 387.673431,206.397430 
	C399.809326,210.769547 412.471680,214.440125 424.369843,219.805328 
	C448.356110,230.621368 468.673706,246.349121 476.283600,272.623352 
	C486.613220,308.287567 478.836121,341.144073 453.738953,368.479156 
	C436.354797,387.413422 412.716370,391.691040 388.054474,389.268738 
	C378.396088,388.320129 368.882538,385.287079 359.490784,382.557251 
	C356.115753,381.576263 354.424164,382.195251 353.142609,384.955292 
	C347.062958,398.048584 340.870148,411.094604 335.104401,424.325989 
	C332.673737,429.904022 331.195953,435.897278 329.145569,442.125549 
	C327.217682,423.121796 330.258179,402.356506 339.141388,372.805725 
	C331.106293,373.574799 322.980804,375.077026 314.886597,374.923981 
	C306.758820,374.770294 298.662231,372.967346 290.740173,371.295715 
	C331.594604,365.822662 360.546448,344.977783 377.470642,308.194122 
	C379.151764,313.551331 378.832947,326.773254 374.896362,335.674957 
	C371.071442,344.324036 365.751923,352.312134 360.984619,360.775330 
	C377.748779,364.897156 395.452515,368.482422 413.632690,363.868744 
	C429.611511,359.813751 440.404114,349.462128 446.920380,334.636810 
	C453.045654,320.701019 456.059509,306.131073 453.961487,290.837097 
	C451.290802,271.369110 439.426208,258.383087 423.351410,248.775848 
	C405.623413,238.180557 386.159851,232.801468 365.653076,230.997330 
	C362.532257,230.722763 359.424561,230.299042 356.243256,229.936615 
	C357.616669,221.451797 359.379608,213.350281 360.181061,205.154724 
	C365.235779,153.465332 339.472992,113.079391 290.489716,95.942413 
	C268.547272,88.265778 245.996750,84.264999 222.737656,87.830521 
	C188.882385,93.020378 163.844498,111.373108 146.869858,140.720139 
	C134.099106,162.799164 128.313614,186.619263 132.078796,212.177521 
	C132.987381,218.345032 135.121857,224.331940 136.666702,230.301849 
	C126.951340,224.847137 120.693039,198.435745 121.227882,164.176544 
	C111.729240,162.056488 102.113235,162.589813 92.629944,164.192749 
	C57.661819,170.103271 40.413155,193.918167 39.203716,227.001190 
	C38.443874,247.785828 49.674618,262.499420 66.292519,273.573059 
	C77.485176,281.031464 89.709595,286.253204 102.915970,288.804230 
	C106.875633,289.569122 108.285812,291.314117 108.933098,295.080353 
	C112.967308,318.553314 109.983841,341.528687 104.452324,364.359131 
	C104.025124,366.122345 103.616394,367.890015 103.090935,370.113190 
	C105.138634,370.113190 106.913597,370.174347 108.683357,370.104218 
	C150.919922,368.430695 192.167786,373.757599 231.683121,389.083588 
	C260.069641,400.093292 284.111481,417.211884 300.958252,443.642456 
	C301.026764,443.971375 301.067963,443.936523 301.067963,443.936523 
z"/>
<path fill="#F97418" opacity="1.000000" stroke="none" 
	d="
M301.004150,443.986115 
	C301.180023,444.163513 301.378448,444.326141 301.576904,444.488800 
	C301.368683,444.434845 301.160461,444.380890 301.010101,444.131714 
	C301.067963,443.936523 301.026764,443.971375 301.004150,443.986115 
z"/>
</svg>